Coordinates
version=1
nRows=27
nColumns=34
inDegrees=no

Units are S.I. units (second, meters, Newtons, ...)
If the header above contains a line with 'inDegrees', this indicates whether rotational values are in degrees (yes) or radians (no).

endheader
time	pelvis_tilt	pelvis_list	pelvis_rotation	pelvis_tx	pelvis_ty	pelvis_tz	hip_flexion_r	hip_adduction_r	hip_rotation_r	knee_angle_r	ankle_angle_r	subtalar_angle_r	mtp_angle_r	hip_flexion_l	hip_adduction_l	hip_rotation_l	knee_angle_l	ankle_angle_l	subtalar_angle_l	mtp_angle_l	lumbar_extension	lumbar_bending	lumbar_rotation	arm_flex_r	arm_add_r	arm_rot_r	elbow_flex_r	pro_sup_r	arm_flex_l	arm_add_l	arm_rot_l	elbow_flex_l	pro_sup_l
0	0.0159741	-0.0328598	0.0529744	-0.190823	0.990053	-0.214271	0.39716	0.0207538	-0.0818612	-0.0112128	0.0272065	0.0965646	-0.0231336	-0.243238	-0.00597118	-0.0354354	0.234604	0.464739	0.233211	-0.0231395	-0.116212	0.0730412	-0.106631	-0.173016	-0.157492	-0.0806091	0.413157	1.59871	0.151705	-0.306505	0.152376	1.0395	1.548
0.01	0.0215777	-0.047139	0.0527879	-0.1741	0.997345	-0.213069	0.379165	0.0415985	-0.0684967	-0.0113133	0.000613171	0.0776009	-0.0231314	-0.256424	-0.0239385	-0.0428164	0.255312	0.461893	0.224634	-0.0231371	-0.118676	0.0901077	-0.105643	-0.175206	-0.159617	-0.0816239	0.408824	1.59941	0.144969	-0.301306	0.150823	1.03572	1.55056
0.02	0.026183	-0.0618432	0.0525488	-0.157442	1.00381	-0.211756	0.362008	0.0626355	-0.0560079	-0.0113313	-0.0265586	0.0571694	-0.0231291	-0.265277	-0.0437764	-0.0521455	0.281347	0.453606	0.217539	-0.0231348	-0.119804	0.107318	-0.104571	-0.177276	-0.161693	-0.082476	0.405157	1.60003	0.137469	-0.295925	0.149802	1.03043	1.55305
0.03	0.0297602	-0.0769518	0.0522425	-0.140865	1.00949	-0.210338	0.345736	0.0838391	-0.044398	-0.011259	-0.0542161	0.0353499	-0.0231269	-0.269721	-0.0654635	-0.0633509	0.312745	0.439852	0.21189	-0.0231325	-0.119569	0.124647	-0.103405	-0.17922	-0.163719	-0.0831575	0.402159	1.60056	0.129217	-0.290365	0.149322	1.0236	1.55547
0.04	0.0322151	-0.0924128	0.0518319	-0.124398	1.01444	-0.208818	0.330487	0.105143	-0.0336751	-0.0110691	-0.0820685	0.012371	-0.0231247	-0.26954	-0.0889351	-0.0761853	0.349595	0.420558	0.207549	-0.0231302	-0.117903	0.142035	-0.10212	-0.181015	-0.165692	-0.0836438	0.399838	1.60101	0.12025	-0.28463	0.149404	1.01524	1.55777
0.05	0.0333874	-0.108141	0.0512589	-0.108083	1.01872	-0.207205	0.316503	0.126439	-0.0238592	-0.0107076	-0.109557	-0.0113486	-0.0231225	-0.264373	-0.114056	-0.0901309	0.392009	0.395618	0.204206	-0.0231279	-0.114706	0.159384	-0.100679	-0.182618	-0.167619	-0.083893	0.398211	1.60141	0.110643	-0.278731	0.150081	1.00534	1.55987
0.06	0.0330797	-0.12402	0.0504578	-0.091976	1.02236	-0.20551	0.304117	0.147571	-0.0149983	-0.0100928	-0.135845	-0.0351859	-0.0231203	-0.253775	-0.140588	-0.104353	0.440049	0.364923	0.201335	-0.0231256	-0.109889	0.176567	-0.0990462	-0.183959	-0.16951	-0.0838542	0.39732	1.60181	0.100512	-0.272679	0.151385	0.993895	1.56171
0.07	0.0311092	-0.1399	0.049376	-0.0761421	1.02542	-0.203749	0.293686	0.168346	-0.00719061	-0.0091252	-0.159887	-0.0583248	-0.023118	-0.23731	-0.16816	-0.117726	0.493637	0.32842	0.198197	-0.0231232	-0.103418	0.193429	-0.0971973	-0.184938	-0.171385	-0.0834855	0.397232	1.6023	0.0900116	-0.266494	0.153335	0.980968	1.56316
0.08	0.0273709	-0.155602	0.0479999	-0.0606504	1.02795	-0.201948	0.2855	0.188531	-0.000599331	-0.00770935	-0.18055	-0.0797958	-0.0231158	-0.214695	-0.196246	-0.128944	0.552462	0.286203	0.193894	-0.0231209	-0.0953823	0.209791	-0.0951391	-0.185428	-0.173269	-0.0827747	0.398051	1.603	0.079323	-0.260198	0.155931	0.96665	1.56416
0.09	0.021902	-0.170896	0.0463743	-0.0455621	1.03	-0.20014	0.279648	0.207863	0.00455424	-0.00578591	-0.19678	-0.0985461	-0.0231136	-0.185915	-0.224176	-0.136689	0.615916	0.23862	0.187494	-0.0231186	-0.0860277	0.225455	-0.0929185	-0.185288	-0.175187	-0.0817543	0.399916	1.60406	0.0686367	-0.253823	0.159141	0.951087	1.56462
0.1	0.0149529	-0.185525	0.0446107	-0.0309176	1.03164	-0.198363	0.275893	0.22607	0.00803857	-0.00337329	-0.207782	-0.113549	-0.0231114	-0.151309	-0.251178	-0.13984	0.683063	0.186412	0.178182	-0.0231163	-0.0757511	0.2402	-0.0906259	-0.184382	-0.177158	-0.0805024	0.402987	1.60557	0.058127	-0.247406	0.162905	0.93447	1.56449
0.11	0.00698349	-0.199216	0.0428847	-0.0167269	1.03296	-0.196655	0.273661	0.242898	0.00968155	-0.000602578	-0.213166	-0.123979	-0.0231092	-0.111582	-0.276459	-0.137667	0.752688	0.130828	0.165416	-0.023114	-0.065066	0.253807	-0.0883795	-0.182594	-0.179189	-0.0791232	0.407418	1.60759	0.0479309	-0.240992	0.167143	0.917019	1.56373
0.12	-0.00147959	-0.211752	0.0414131	-0.00297066	1.03403	-0.195052	0.272149	0.258158	0.00946721	0.00227139	-0.213056	-0.12945	-0.023107	-0.0677038	-0.29932	-0.129961	0.823435	0.0736987	0.149033	-0.0231117	-0.0545173	0.266086	-0.0863089	-0.179847	-0.181286	-0.0777123	0.413333	1.6101	0.0381307	-0.234626	0.171768	0.898954	1.56234
0.13	-0.00991243	-0.222986	0.0404024	0.0103903	1.03494	-0.193575	0.270459	0.271743	0.00757986	0.00489129	-0.208057	-0.130094	-0.0231047	-0.0208145	-0.319229	-0.117059	0.893917	0.0174034	0.129261	-0.0231093	-0.0446137	0.276895	-0.0845224	-0.176111	-0.18345	-0.0763085	0.420782	1.61297	0.0287511	-0.228356	0.176704	0.880472	1.5603
0.14	-0.0178209	-0.232819	0.0399953	0.0234107	1.03574	-0.192236	0.267723	0.283615	0.00438778	0.00687709	-0.199112	-0.126483	-0.0231025	0.027855	-0.33584	-0.0997798	0.962804	-0.0352879	0.10664	-0.023107	-0.035796	0.286134	-0.0830656	-0.17139	-0.185684	-0.0748519	0.429714	1.616	0.0197703	-0.222225	0.181892	0.861731	1.55761
0.15	-0.0247751	-0.241191	0.040232	0.0361506	1.03651	-0.191035	0.263212	0.293789	0.000383371	0.00793648	-0.187303	-0.119463	-0.0231003	0.0770633	-0.348981	-0.0792892	1.0289	-0.081492	0.0819098	-0.0231047	-0.0284207	0.293731	-0.0818897	-0.165714	-0.187992	-0.0731694	0.439971	1.61897	0.0111358	-0.216278	0.187296	0.842842	1.55425
0.16	-0.0304332	-0.24806	0.0410321	0.0486696	1.0373	-0.189962	0.256402	0.30231	-0.00388875	0.00794878	-0.173666	-0.109982	-0.0230981	0.125633	-0.358634	-0.0569346	1.09116	-0.118574	0.0558917	-0.0231024	-0.0227588	0.299636	-0.0808382	-0.159129	-0.190383	-0.0709936	0.451296	1.62163	0.00278295	-0.210555	0.192902	0.823873	1.55022
0.17	-0.0345609	-0.253401	0.0422006	0.0610215	1.03814	-0.188999	0.247017	0.309238	-0.00790121	0.00699588	-0.159054	-0.0989319	-0.0230959	0.172521	-0.364897	-0.0340809	1.14874	-0.14453	0.0293817	-0.0231001	-0.0189942	0.303813	-0.0796568	-0.151683	-0.192865	-0.0680148	0.463378	1.62379	-0.00534922	-0.205094	0.198708	0.804855	1.54552
0.18	-0.0370501	-0.257204	0.0434556	0.0732499	1.03907	-0.188119	0.235024	0.314635	-0.0111972	0.00533452	-0.144068	-0.087064	-0.0230936	0.216875	-0.367968	-0.0119711	1.20098	-0.158303	0.003071	-0.0230977	-0.0172228	0.306242	-0.0780233	-0.143434	-0.195445	-0.0639493	0.47589	1.62531	-0.0133101	-0.199925	0.20471	0.785799	1.54023
0.19	-0.0379442	-0.259463	0.0444742	0.0853862	1.0401	-0.187299	0.2206	0.318567	-0.0134183	0.00332281	-0.129055	-0.0749533	-0.0230914	0.258063	-0.368123	0.00837512	1.24738	-0.15997	-0.0225052	-0.0230954	-0.0174591	0.30694	-0.0755926	-0.134441	-0.19812	-0.0586067	0.488543	1.62612	-0.0211358	-0.19507	0.210893	0.766715	1.53449
0.2	-0.0374225	-0.260168	0.0449485	0.0974473	1.04121	-0.186512	0.204081	0.32112	-0.0143054	0.00132267	-0.114157	-0.0630242	-0.0230892	0.295691	-0.365708	0.0262137	1.28759	-0.150736	-0.0469927	-0.0230931	-0.0196327	0.305977	-0.072036	-0.124774	-0.200883	-0.0519394	0.501121	1.62625	-0.0288563	-0.19054	0.217216	0.747638	1.5285
0.21	-0.0356791	-0.259388	0.0445873	0.109447	1.04241	-0.185735	0.185922	0.322378	-0.0136835	-0.000392197	-0.0993852	-0.0515991	-0.023087	0.32961	-0.361109	0.0410821	1.32137	-0.132733	-0.0702147	-0.0230908	-0.0235644	0.303448	-0.0670924	-0.114512	-0.203719	-0.0440624	0.513499	1.62581	-0.0365024	-0.186328	0.223604	0.728637	1.52254
0.22	-0.0329574	-0.257249	0.043166	0.12139	1.04367	-0.184949	0.166623	0.322432	-0.0114591	-0.00165809	-0.0846851	-0.0409275	-0.0230848	0.359879	-0.354738	0.0527801	1.3486	-0.108667	-0.0921407	-0.0230885	-0.0289982	0.299493	-0.0605983	-0.103747	-0.206605	-0.0352447	0.525642	1.62497	-0.0441138	-0.182417	0.229955	0.709835	1.51687
0.23	-0.0295277	-0.25392	0.040551	0.133277	1.04496	-0.184142	0.146674	0.321388	-0.00762282	-0.00240691	-0.0699834	-0.0311927	-0.0230825	0.386719	-0.347024	0.0613257	1.36926	-0.0813824	-0.11283	-0.0230862	-0.0356295	0.294288	-0.0525035	-0.0925794	-0.209517	-0.0258723	0.537585	1.62397	-0.0517423	-0.178773	0.236146	0.691401	1.51171
0.24	-0.0256546	-0.249599	0.0367087	0.145107	1.04624	-0.183307	0.126509	0.319362	-0.00225461	-0.00263257	-0.0552174	-0.0224992	-0.0230803	0.410451	-0.338382	0.0669002	1.38342	-0.0534456	-0.132358	-0.0230838	-0.0431381	0.288041	-0.0428717	-0.0811073	-0.212434	-0.0163947	0.549403	1.62308	-0.0594503	-0.175357	0.242052	0.673539	1.50718
0.25	-0.0215646	-0.244501	0.0317016	0.156886	1.0475	-0.182449	0.106466	0.316477	0.00447148	-0.00235459	-0.0403457	-0.0148523	-0.0230781	0.431442	-0.329208	0.0697922	1.39125	-0.0268235	-0.150748	-0.0230815	-0.0512224	0.280976	-0.0318698	-0.0694212	-0.215332	-0.00726494	0.561174	1.62256	-0.0673053	-0.172125	0.247556	0.65647	1.50331
0.26	-0.0174222	-0.238842	0.0256733	0.168618	1.0487	-0.181575	0.0867723	0.312855	0.012289	-0.00159055	-0.0253477	-0.00814079	-0.0230759	0.450055	-0.319849	0.0703505	1.39297	-0.00272137	-0.16792	-0.0230792	-0.0596219	0.273319	-0.0197485	-0.0575957	-0.21819	0.00111479	0.572951	1.62268	-0.075372	-0.169037	0.252568	0.640403	1.50004
